#!OML:ASF F:\VICON\USERDATA\INSTALL\rory3\rory3.ASF
:FULLY-SPECIFIED
:DEGREES
171
root -1.00471 17.7377 7.16433 184.149 10.4612 -179.053
lowerback 34.7372 -1.96964 1.18055
upperback 6.65193 0.717071 5.32838
thorax -10.3857 1.16672 4.62669
lowerneck -12.3263 -1.99598 -0.361589
upperneck 20.66 -1.29821 -3.30657
head 8.43731 -0.741172 -1.15338
rclavicle -3.02153e-014 -7.31528e-014
rhumerus -1.46095 5.70431 -87.1576
rradius 64.1724
rwrist -3.53131
rhand -20.514 13.001
rfingers 7.12502
rthumb 5.84355 -16.8984
lclavicle -3.02153e-014 -7.31528e-014
lhumerus -13.4308 -5.35907 102.137
lradius 58.9143
lwrist 72.5386
lhand -16.4222 68.6049
lfingers 7.12502
lthumb 9.79285 -98.3572
rfemur -22.1581 7.91591 21.6603
rtibia 42.6907
rfoot -20.0135 -9.80701
rtoes 4.18227
lfemur -36.1244 5.04638 -19.8802
ltibia 30.1603
lfoot -12.9614 11.9529
ltoes -11.7296
172
root -0.99675 17.72 7.11874 184.158 9.54351 -178.821
lowerback 34.4945 -2.1647 1.49337
upperback 6.49392 0.566473 5.40184
thorax -10.4581 1.08473 4.59835
lowerneck -12.0619 -2.08114 -0.0321879
upperneck 20.4075 -1.41394 -3.68847
head 8.29438 -0.804591 -1.34213
rclavicle 2.8625e-014 -1.43125e-014
rhumerus -0.946008 4.99182 -87.1842
rradius 64.0862
rwrist -5.90882
rhand -19.3728 11.5935
rfingers 7.12502
rthumb 6.94526 -18.2726
lclavicle 2.8625e-014 -1.43125e-014
lhumerus -13.2754 -5.69033 102.626
lradius 59.1102
lwrist 73.9447
lhand -17.5348 68.3677
lfingers 7.12502
lthumb 8.71926 -98.1676
rfemur -21.9451 7.56495 22.0505
rtibia 42.7982
rfoot -20.2069 -10.4851
rtoes 3.3109
lfemur -36.0217 4.35176 -19.5196
ltibia 28.8083
lfoot -12.6624 12.4031
ltoes -9.9874
173
root -0.99913 17.7162 7.04439 184.104 8.99553 -178.911
lowerback 33.8668 -2.21679 1.63792
upperback 6.45437 0.468068 5.30417
thorax -10.2483 1.02125 4.45259
lowerneck -12.2668 -2.26703 -0.261301
upperneck 20.9101 -1.66215 -3.29239
head 8.50301 -0.893361 -1.20522
rclavicle -3.65764e-014 -1.11319e-014
rhumerus -0.349964 4.19054 -87.2547
rradius 63.7044
rwrist -7.91677
rhand -18.3003 10.2013
rfingers 7.12502
rthumb 7.98052 -19.628
lclavicle -3.65764e-014 -1.11319e-014
lhumerus -13.1623 -6.14404 103.188
lradius 59.5341
lwrist 74.8586
lhand -18.7846 68.7557
lfingers 7.12502
lthumb 7.51306 -98.6022
rfemur -21.6269 7.25931 21.9819
rtibia 42.9019
rfoot -20.6907 -10.8105
rtoes 2.70027
lfemur -35.6282 3.79437 -19.5523
ltibia 27.5361
lfoot -12.473 13.1463
ltoes -9.86989
174
root -0.998443 17.7191 6.97233 183.899 8.49194 -179.053
lowerback 33.6128 -2.26152 1.60421
upperback 6.36702 0.333752 5.15437
thorax -10.2326 0.946537 4.36272
lowerneck -12.544 -2.40976 -0.26191
upperneck 21.2554 -1.87874 -3.09676
head 8.66931 -0.974019 -1.17029
rclavicle 1.03368e-014 7.95139e-014
rhumerus -0.0631635 3.52228 -87.4478
rradius 63.6603
rwrist -9.53489
rhand -17.1522 8.3397
rfingers 7.12502
rthumb 9.08847 -21.4445
lclavicle 1.03368e-014 7.95139e-014
lhumerus -12.9754 -6.58795 103.655
lradius 60.0166
lwrist 74.8391
lhand -20.0539 70.4949
lfingers 7.12502
lthumb 6.2878 -100.382
rfemur -21.1321 6.94057 21.8959
rtibia 42.9899
rfoot -21.1578 -11.1702
rtoes 2.35267
lfemur -35.094 3.38236 -19.6597
ltibia 26.379
lfoot -12.1133 13.9848
ltoes -9.90255
175
root -0.987195 17.7011 6.94367 183.577 7.16274 -178.813
lowerback 34.2961 -2.68893 1.8695
upperback 5.9696 -0.0622145 5.2277
thorax -10.9161 0.758371 4.46659
lowerneck -12.5191 -2.50196 -0.303717
upperneck 21.6114 -1.99161 -2.9427
head 8.78662 -1.00383 -1.12631
rclavicle -4.77083e-014 -2.46493e-014
rhumerus -0.158452 3.23822 -87.6151
rradius 63.8512
rwrist -10.9879
rhand -15.9919 6.36121
rfingers 7.12502
rthumb 10.208 -23.3711
lclavicle -4.77083e-014 -2.46493e-014
lhumerus -12.6898 -7.04265 104.109
lradius 60.059
lwrist 74.498
lhand -21.4695 71.9325
lfingers 7.12502
lthumb 4.92098 -101.855
rfemur -20.5332 6.24263 22.3726
rtibia 43.0717
rfoot -21.4725 -11.91
rtoes 2.19284
lfemur -34.7611 2.49718 -19.3313
ltibia 25.4
lfoot -11.985 14.5821
ltoes -7.57654
176
root -0.982841 17.6872 6.88077 183.459 6.36264 -178.652
lowerback 34.2013 -2.91744 1.97737
upperback 5.72655 -0.346172 5.26002
thorax -11.1337 0.612022 4.56203
lowerneck -11.9815 -2.3954 0.000195261
upperneck 21.4836 -1.82249 -3.25724
head 8.63825 -0.919478 -1.25444
rclavicle -3.02153e-014 -3.97569e-015
rhumerus -0.281033 3.2861 -87.6402
rradius 63.9859
rwrist -12.5415
rhand -14.9348 4.34055
rfingers 7.12502
rthumb 11.2276 -25.339
lclavicle -3.02153e-014 -3.97569e-015
lhumerus -12.4941 -7.49408 104.672
lradius 60.1964
lwrist 74.0935
lhand -23.1444 72.4329
lfingers 7.12502
lthumb 3.30362 -102.387
rfemur -20.0962 5.91336 22.6647
rtibia 43.1311
rfoot -21.7575 -12.4626
rtoes 2.09169
lfemur -34.5008 1.69628 -18.9935
ltibia 24.6483
lfoot -13.3403 15.5113
ltoes 0.940584
